<svg width="1920" height="920" viewBox="0 0 1920 920" fill="none" xmlns="http://www.w3.org/2000/svg">
<g filter="url(#filter0_d_3_19)">
<circle cx="51.7518" cy="-31.4882" r="220.865" fill="#326DE0"/>
<circle cx="411.43" cy="-114.663" r="220.865" fill="#326DE0"/>
<circle cx="783.471" cy="-146.135" r="220.865" fill="#326DE0"/>
<circle cx="1154.39" cy="-133.772" r="220.865" fill="#326DE0"/>
<circle cx="1523.06" cy="-95.5558" r="220.865" fill="#326DE0"/>
<circle cx="1865.88" cy="20.2154" r="220.865" fill="#326DE0"/>
<circle cx="1977.71" cy="238.832" r="219.179" fill="#326DE0"/>
<circle cx="1996.82" cy="540.062" r="219.179" fill="#326DE0"/>
<circle cx="1881.05" cy="867.144" r="219.179" fill="#326DE0"/>
<path d="M292.848 910.98C292.848 1032.03 194.719 1130.16 73.6698 1130.16C-47.3792 1130.16 -145.509 1032.03 -145.509 910.98C-145.509 789.931 -47.3792 691.801 73.6698 691.801C194.719 691.801 292.848 789.931 292.848 910.98Z" fill="#326DE0"/>
<circle cx="-75.8214" cy="274.8" r="219.179" fill="#326DE0"/>
<circle cx="-58.9614" cy="601.882" r="219.179" fill="#326DE0"/>
<circle cx="454.703" cy="1034.62" r="219.179" fill="#326DE0"/>
<circle cx="836.861" cy="1068.34" r="219.179" fill="#326DE0"/>
<circle cx="1228.01" cy="1025.63" r="219.179" fill="#326DE0"/>
<circle cx="1558.46" cy="928.964" r="219.179" fill="#326DE0"/>
</g>
<defs>
<filter id="filter0_d_3_19" x="-299" y="-367" width="2519" height="1662.52" filterUnits="userSpaceOnUse" color-interpolation-filters="sRGB">
<feFlood flood-opacity="0" result="BackgroundImageFix"/>
<feColorMatrix in="SourceAlpha" type="matrix" values="0 0 0 0 0 0 0 0 0 0 0 0 0 0 0 0 0 0 127 0" result="hardAlpha"/>
<feOffset dy="4"/>
<feGaussianBlur stdDeviation="2"/>
<feComposite in2="hardAlpha" operator="out"/>
<feColorMatrix type="matrix" values="0 0 0 0 0 0 0 0 0 0 0 0 0 0 0 0 0 0 0.25 0"/>
<feBlend mode="normal" in2="BackgroundImageFix" result="effect1_dropShadow_3_19"/>
<feBlend mode="normal" in="SourceGraphic" in2="effect1_dropShadow_3_19" result="shape"/>
</filter>
</defs>
</svg>
