<svg width="166" height="58" viewBox="0 0 166 58" fill="none" xmlns="http://www.w3.org/2000/svg">
<path d="M73 10.5C73 5.25329 68.7467 1 63.5 1H31.9829C30.3305 1 28.6808 1.13653 27.0509 1.40818L23.4994 2.00011C21.5049 2.33252 19.5491 2.86571 17.662 3.59156L16.7046 3.95976C14.9071 4.65113 13.1914 5.53907 11.5889 6.60739C9.21237 8.19175 7.11159 10.1549 5.37011 12.4189L4.56991 13.4591C3.52777 14.8139 2.66707 16.299 2.00967 17.8768C1.01309 20.2686 0.5 22.834 0.5 25.4252V26V28.0171C0.5 29.6695 0.636525 31.3192 0.908182 32.9491L0.931203 33.0872C1.30915 35.3549 1.9465 37.5716 2.83071 39.6937L2.88909 39.8338C3.62797 41.6071 4.53655 43.3048 5.60218 44.9033L5.75514 45.1327C7.24392 47.3659 9.04711 49.3726 11.109 51.0908L11.5822 51.4851C13.1868 52.8223 14.9637 53.938 16.8652 54.8024C18.615 55.5977 20.4564 56.1739 22.3475 56.5177L22.6846 56.579C24.2251 56.8591 25.7876 57 27.3534 57H31.5H62.2927C65.2414 57 68.0031 55.5555 69.685 53.1336C73.8295 47.1656 69.5586 39 62.2927 39H35.3079C32.7955 39 30.3093 38.4897 28 37.5L26.9318 36.9659C26.3123 36.6562 25.7273 36.2819 25.1865 35.8492C24.0754 34.9603 23.1705 33.8409 22.5341 32.5682L22.5 32.5L22.1314 31.7628C21.7162 30.9323 21.5 30.0166 21.5 29.0882C21.5 28.0474 21.7716 27.0247 22.288 26.1211L22.8295 25.1733C23.2745 24.3946 23.8213 23.6787 24.4555 23.0445L24.6966 22.8034C25.5576 21.9424 26.575 21.2536 27.6942 20.7739C28.8857 20.2633 30.1684 20 31.4646 20H63.5C68.7467 20 73 15.7467 73 10.5Z" fill="#1F4897" stroke="black"/>
<path d="M77 3V18C77 19.1046 77.8954 20 79 20H86C87.1046 20 88 19.1046 88 18V9C88 7.89543 88.8954 7 90 7H93.5C94.6046 7 95.5 6.10457 95.5 5V3C95.5 1.89543 94.6046 1 93.5 1H79C77.8954 1 77 1.89543 77 3Z" fill="#1F4897" stroke="black"/>
<path d="M131.5 1H101C99.8954 1 99 1.89543 99 3V18C99 19.1046 99.8954 20 101 20H106C107.105 20 108 19.1046 108 18V9.25C108 8.2835 108.784 7.5 109.75 7.5C110.716 7.5 111.5 8.2835 111.5 9.25V18C111.5 19.1046 112.395 20 113.5 20H119C120.105 20 121 19.1046 121 18V9.25C121 8.2835 121.784 7.5 122.75 7.5C123.716 7.5 124.5 8.2835 124.5 9.25V18C124.5 19.1046 125.395 20 126.5 20H131.5C132.605 20 133.5 19.1046 133.5 18V3C133.5 1.89543 132.605 1 131.5 1Z" fill="#1F4897" stroke="black"/>
<path d="M162.29 1H158.055C157.395 1 156.777 1.32578 156.404 1.87063L146.141 16.8706C145.233 18.198 146.183 20 147.792 20H152.422C153.095 20 153.723 19.6615 154.093 19.0992L163.961 4.09923C164.836 2.76936 163.882 1 162.29 1Z" fill="#1F4897" stroke="black"/>
<path d="M152.631 1H138.469C137.764 1 137.28 1.71037 137.538 2.36653L142.799 15.72C143.095 16.4713 144.113 16.5801 144.561 15.9081L153.464 2.5547C153.907 1.89015 153.43 1 152.631 1Z" fill="#1F4897" stroke="black"/>
<path d="M139.201 23.421L116.121 55.921C115.651 56.5831 116.125 57.5 116.937 57.5H130.471C130.802 57.5 131.111 57.3364 131.298 57.063L153.435 24.563C153.888 23.8991 153.412 23 152.609 23H140.016C139.692 23 139.389 23.1569 139.201 23.421Z" fill="#E03632" stroke="black"/>
<path d="M118.201 23.421L95.1213 55.921C94.6511 56.5831 95.1245 57.5 95.9366 57.5H109.471C109.802 57.5 110.111 57.3364 110.298 57.063L132.435 24.563C132.888 23.8991 132.412 23 131.609 23H119.016C118.692 23 118.389 23.1569 118.201 23.421Z" fill="#1F4897" stroke="black"/>
<path d="M95.201 23.421L72.1213 55.921C71.6511 56.5831 72.1245 57.5 72.9366 57.5H86.4712C86.802 57.5 87.1114 57.3364 87.2977 57.063L109.435 24.563C109.888 23.8991 109.412 23 108.609 23H96.0164C95.6924 23 95.3886 23.1569 95.201 23.421Z" fill="#FFEAEA" stroke="black"/>
</svg>
